<?xml version="1.0" encoding="utf-8"?>
<!-- Generator: Adobe Illustrator 24.0.0, SVG Export Plug-In . SVG Version: 6.00 Build 0)  -->
<svg version="1.1" id="Layer_1" xmlns="http://www.w3.org/2000/svg" xmlns:xlink="http://www.w3.org/1999/xlink" x="0px" y="0px"
	 viewBox="0 0 1000 1000" style="enable-background:new 0 0 1000 1000;" xml:space="preserve">
<style type="text/css">
	.st0{fill:#FCEE21;}
</style>
<g>
	<g>
		<path d="M92.42,487.85V17.53h65.94v470.32H92.42z M121.19,289.06v-62.71h160.33c19.18,0,34.59-6.68,46.22-20.04
			c11.64-13.36,17.46-31.03,17.46-53.01s-5.82-39.65-17.46-53.01c-11.64-13.36-27.05-20.04-46.22-20.04H121.19V17.53h157.74
			c27.36,0,51.28,5.66,71.76,16.97c20.47,11.31,36.36,27.1,47.68,47.35c11.31,20.26,16.97,44.07,16.97,71.44
			c0,27.15-5.71,50.91-17.13,71.27c-11.42,20.36-27.31,36.2-47.68,47.52s-44.23,16.97-71.6,16.97H121.19z M356.83,487.85
			L249.19,274.51l65.62-14.87l120.25,228.21H356.83z"/>
	</g>
</g>
<g>
	<g>
		<path d="M602.12,487.85V17.85h65.94v469.99H602.12z M636.06,305.54v-62.71h150.31c21.54,0,38.84-7.43,51.88-22.3
			c13.04-14.87,19.56-34.37,19.56-58.51c0-24.57-6.52-44.28-19.56-59.15c-13.04-14.87-30.33-22.3-51.88-22.3H636.06V17.85H784.1
			c28.45,0,53.22,5.98,74.35,17.94c21.12,11.96,37.55,28.72,49.29,50.26c11.74,21.55,17.62,46.87,17.62,75.96
			c0,28.88-5.88,54.09-17.62,75.64c-11.75,21.55-28.18,38.25-49.29,50.1c-21.12,11.85-45.9,17.78-74.35,17.78H636.06z"/>
	</g>
</g>
<g>
	<g>
		<path d="M245.64,992.7c-22.84,0-44.34-2.16-64.49-6.46c-20.15-4.31-39.01-10.77-56.57-19.39c-17.57-8.62-34-19.39-49.29-32.32
			l41.05-50.43c17.88,15.52,37.6,27.15,59.15,34.91c21.55,7.76,44.93,11.64,70.14,11.64c34.05,0,60.45-6.35,79.19-19.07
			c18.75-12.71,28.12-30.49,28.12-53.33v-0.32c0-17.88-4.74-31.57-14.22-41.05c-9.49-9.48-21.93-16.54-37.33-21.17
			c-15.41-4.63-32.27-8.46-50.59-11.48c-17.67-3.01-35.51-6.57-53.5-10.67c-18-4.09-34.54-10.5-49.62-19.23
			c-15.09-8.73-27.21-21.28-36.36-37.66c-9.16-16.37-13.74-38.25-13.74-65.62v-0.32c0-43.74,14.55-77.63,43.64-101.66
			c29.09-24.03,70.14-36.04,123.16-36.04c25.21,0,49.89,4.04,74.02,12.12c24.13,8.08,47.62,20.42,70.47,37.01l-37.5,52.37
			c-17.89-13.36-35.72-23.27-53.5-29.74s-35.61-9.7-53.5-9.7c-32.11,0-57.05,6.42-74.83,19.23c-17.78,12.82-26.67,30.98-26.67,54.47
			v0.32c0,17.67,5.17,31.14,15.52,40.41c10.34,9.27,23.86,16.11,40.57,20.53c16.7,4.42,34.64,8.57,53.82,12.44
			c17.24,3.45,34.48,7.6,51.72,12.45c17.24,4.85,32.92,11.85,47.03,21.01c14.11,9.16,25.42,21.71,33.94,37.66
			c8.51,15.95,12.77,36.74,12.77,62.39v0.65c0,43.31-15.09,76.83-45.25,100.53C342.82,980.85,300.37,992.7,245.64,992.7z"/>
	</g>
</g>
<g>
	<g>
		<path class="st0" d="M592.42,987.85V517.53h65.94v470.32H592.42z M621.19,789.05v-62.71h160.33c19.18,0,34.59-6.68,46.22-20.04
			c11.64-13.36,17.46-31.03,17.46-53.01s-5.82-39.65-17.46-53.01c-11.64-13.36-27.05-20.04-46.22-20.04H621.19v-62.71h157.74
			c27.37,0,51.29,5.66,71.76,16.97c20.47,11.31,36.37,27.1,47.68,47.35c11.31,20.26,16.97,44.07,16.97,71.44
			c0,27.15-5.71,50.91-17.13,71.28c-11.43,20.36-27.31,36.2-47.68,47.52s-44.23,16.97-71.6,16.97H621.19z M856.83,987.85
			L749.19,774.51l65.62-14.87l120.25,228.21H856.83z"/>
	</g>
</g>
</svg>
